<svg width="128" height="128" viewBox="0 0 128 128" fill="none" xmlns="http://www.w3.org/2000/svg">
  <defs>
    <linearGradient id="outer" x1="16" y1="12" x2="112" y2="116" gradientUnits="userSpaceOnUse">
      <stop stop-color="#2563EB"/>
      <stop offset="1" stop-color="#0EA5E9"/>
    </linearGradient>
    <linearGradient id="antenna" x1="64" y1="23" x2="64" y2="38" gradientUnits="userSpaceOnUse">
      <stop stop-color="#93C5FD"/>
      <stop offset="1" stop-color="#E0F2FE"/>
    </linearGradient>
  </defs>

  <circle cx="64" cy="64" r="58" fill="url(#outer)"/>

  <rect x="58" y="20" width="12" height="10" rx="5" fill="url(#antenna)"/>
  <circle cx="64" cy="18" r="4" fill="#22C55E"/>

  <rect x="30" y="38" width="68" height="56" rx="22" fill="#F8FAFC"/>
  <rect x="36" y="44" width="56" height="44" rx="18" fill="#FFFFFF"/>

  <circle cx="52" cy="63" r="7" fill="#2563EB"/>
  <circle cx="76" cy="63" r="7" fill="#2563EB"/>
  <circle cx="52" cy="61" r="2" fill="#DBEAFE"/>
  <circle cx="76" cy="61" r="2" fill="#DBEAFE"/>

  <rect x="51" y="76" width="26" height="6" rx="3" fill="#93C5FD"/>

  <circle cx="26" cy="64" r="4" fill="#BFDBFE"/>
  <circle cx="102" cy="64" r="4" fill="#BFDBFE"/>
  <circle cx="44" cy="100" r="5" fill="#22C55E"/>
  <circle cx="84" cy="100" r="5" fill="#22C55E"/>
</svg>
